<svg width="900" height="900" viewBox="0 0 900 900" fill="none" xmlns="http://www.w3.org/2000/svg">
<path d="M512.5 9.50005C504.4 14.1 488 19.4 471.6 22.7C456.4 25.7 454.3 25.3 457.5 20.3C458.5 18.8 460.4 16.3 461.8 14.7C465.5 10.7 463.4 11.4 454.5 16.9C450.1 19.6 446.4 21.7 446.2 21.5C446 21.3 446.6 18.8 447.4 15.9C449.6 8.70005 449.4 8.20005 446.3 11.2C441.1 15.9 437.3 17.9 428 21C423 22.7 418.6 24 418.4 23.7C418.2 23.5 420.4 21.7 423.3 19.7C426.2 17.7 429.9 14.6 431.5 12.9L434.5 9.70005L430 12.4C420.3 18.3 408.4 22 399.6 22C396 22 394.5 22.7 390.7 26C383.1 32.7 378.3 42.8 385.7 36.6C387.4 35.2 389 34 389.2 34C389.4 34 389.3 36.1 389.1 38.7L388.8 43.5L394.4 38.2C399.8 33.1 405.1 30 408.6 30C409.6 30 407.7 32.3 403.7 36C396.8 42.3 393 48.6 393 53.6001C393 56.5001 393.1 56.4001 395.6 52.2001C399.1 46.3 413.3 35.9 423.3 31.9C427.6 30.2 431.4 29.1 431.8 29.4C432.2 29.8 431.7 30.6 430.8 31.1C424.2 34.8 416 41.2 413.3 44.8C407.8 52 409.6 51.6 418.2 43.6C422.7 39.4 426.5 36.2 426.7 36.4C426.9 36.6 425.7 39.4 424.1 42.7C420.7 49.3 419.2 56.4001 420.9 57.4001C421.5 57.8001 422 57.6001 422 57.0001C422 53.5001 433.9 35.2 436.3 35C437.5 35 437.1 42.1 435.5 48.9C434.6 52.4 434.1 55.5001 434.3 55.7001C434.6 55.9001 436.6 52.4 438.9 48C443.2 39.9 448.8 32.4 449.8 33.5C450.1 33.8 450.3 36 450.1 38.5C450 41.3 450.5 43.8 451.5 45.4C453.7 48.7 455.2 48.7 454 45.4C452.8 42.4 452.7 37 453.8 37C454.2 37 456.5 38.4 458.9 40C461.3 41.7 463.8 43 464.3 43C464.9 43 468.3 41 471.9 38.6C478.2 34.3 489.4 30.1 490.8 31.5C491.2 31.8 490.8 32.5 490 33C481.2 37.9 475.2 45.1 474.5 51.6001C474 55.3001 474.1 55.4001 475.2 53.0001C478.8 45.9 484.2 41.7 491 40.8C493.4 40.5 493.5 40.8 494 46.5L494.5 52.5001L497.2 47.5C502.7 37 512.1 29.8 525.5 25.8C529.4 24.6 535 22.6 538 21.2C542.8 18.9 543.2 18.6 540.9 18.3C539.5 18.1 533 18.8 526.5 20C509.8 22.9 504.2 22.6 508.4 19.1C509.8 17.9 519.3 6.00004 518.8 6.00004C518.6 6.00004 515.8 7.60005 512.5 9.50005Z" fill="#253932"/>
<path d="M391.5 16.2999C388.2 18.0999 382.6 21.4999 379.1 23.7999C370.8 29.2999 368.3 29.2999 373.5 23.8999L377.5 19.7999L369.5 23.7999C365.1 25.9999 357.6 29.3999 352.9 31.3999C348.1 33.4999 341.7 37.2999 338.2 40.0999C334.8 42.7999 332 44.5999 332 43.9999C332 42.6999 336.6 35.3999 338 34.4999C338.5 34.1999 339 33.4999 339 32.8999C339 29.9999 315.7 44.8999 311.3 50.6999L308.8 53.9999L303.9 51.2999C301.2 49.8999 298.7 48.8999 298.5 49.1999C298.2 49.4999 298.9 51.3999 300.1 53.3999C301.3 55.3999 302 57.2999 301.8 57.4999C301.3 57.9999 292.2 56.4999 288.6 55.3999C287 54.8999 286.8 55.0999 287.5 56.5999C289.6 61.8999 289.6 61.9999 282.8 59.4999C279.4 58.2999 275.2 56.9999 273.7 56.5999C271.1 55.9999 270.9 56.0999 271.6 58.1999C273.6 64.6999 281.3 69.5999 299.4 75.9999C309.6 79.4999 309.5 79.6999 300.1 69.7999C297.6 67.1999 295.8 64.7999 296.1 64.5999C296.3 64.2999 301 65.4999 306.4 67.0999C311.8 68.6999 316.6 69.9999 317.1 69.9999C317.6 69.9999 318 68.2999 318 66.1999C318 61.4999 321.6 55.6999 327.7 50.4999L331.9 46.8999L332.2 53.1999L332.5 59.4999L334.6 56.1999L336.7 52.7999L337.4 58.6999C337.8 61.8999 339 66.1999 340.3 68.2999L342.6 71.9999V64.7999C342.6 58.6999 343.1 56.3999 345.8 50.8999C349.3 43.6999 357.5 34.9999 361 34.9999C362.1 34.9999 363 35.1999 363 35.4999C363 35.6999 361 38.1999 358.5 40.9999C356.1 43.7999 353.3 47.3999 352.5 48.9999C350.7 52.3999 348.9 60.9999 349.9 60.9999C350.3 60.9999 351.8 58.4999 353.3 55.4999C356.7 48.4999 362.8 41.8999 370.5 36.6999C384.8 26.9999 399 15.5999 399 13.7999C399 12.4999 397.8 12.8999 391.5 16.2999Z" fill="#253932"/>
<path d="M563 23.5999C561.1 23.8999 554.2 24.9999 547.8 26.0999C538.1 27.8999 535.5 28.0999 533.1 27.0999C530.7 25.9999 529.7 26.0999 527 27.4999C521.7 30.1999 501 52.9999 501 56.0999C501 58.0999 509.6 52.1999 517.6 44.6999C531 32.2999 530.7 35.2999 517.1 49.4999C513.9 52.7999 510.5 56.6999 509.5 58.1999C507.8 60.8999 507.8 60.9999 509.6 60.9999C510.6 60.9999 514.3 59.1999 517.9 57.0999C524.6 53.0999 530.5 50.9999 535 50.9999C538.1 50.9999 537.1 51.9999 528.9 57.0999C525.4 59.1999 523.1 60.9999 523.8 60.9999C526.5 60.9999 536.8 56.9999 544.1 53.0999C548.3 50.7999 552 48.9999 552.4 48.9999C554.3 48.9999 552.2 51.1999 546.3 55.4999C538.8 60.9999 529 69.7999 529 71.0999C529 71.5999 532 69.9999 535.8 67.5999C550.7 57.9999 568 50.8999 576.4 51.0999H580.5L575 53.0999C572 54.1999 564.4 57.4999 558.3 60.4999C549.8 64.6999 545.6 67.3999 541 71.8999C535.4 77.3999 533.8 79.9999 535.9 79.9999C536.3 79.9999 540.4 77.8999 544.8 75.3999C549.3 72.8999 553.4 70.9999 554 71.1999C554.6 71.3999 552.8 74.0999 550 77.1999C547.3 80.2999 545 83.0999 545 83.3999C545 85.0999 547.8 83.1999 555.2 76.3999C570.4 62.3999 583 55.7999 591.1 57.4999C594.9 58.3999 594 59.1999 587.5 60.8999C578.1 63.1999 565.4 72.2999 558.8 81.3999C554.2 87.7999 555.5 88.5999 561.6 83.0999C571.1 74.3999 586 66.9999 594.1 66.9999C596.8 66.9999 597.1 67.1999 596 68.4999C595.3 69.2999 594.2 69.9999 593.5 69.9999C591.5 69.9999 576.4 77.7999 574.9 79.5999C573.8 80.8999 574 80.9999 576.6 80.2999C578.2 79.8999 584 79.5999 589.5 79.7999C611 80.4999 616.7 80.4999 623 79.6999C627.6 79.1999 629 79.1999 627.9 79.8999C624.4 82.0999 612 84.1999 598 84.8999C582 85.7999 575.1 87.6999 564.1 94.4999C555.7 99.4999 544 112.5 544 116.6C544 117 547.6 113.9 551.9 109.7C561.8 99.9999 567 97.4999 576.5 97.5999C581 97.6999 585.7 98.4999 589.5 99.8999C592.8 101.1 600.7 103.8 607 105.9C618.1 109.5 625 112.5 625 113.6C625 114.3 617.7 113.2 603.8 110.4C591.4 107.8 585 107.4 585 109C585 109.5 585.9 110 587 110C589.3 110 596.5 113.4 597.4 114.9C597.8 115.4 597.2 116.1 596.3 116.4C590.5 118 572.5 122 570.7 122C568.9 122 568.8 122.2 570 123C570.8 123.5 575.6 124 580.5 124C586.2 124.1 590.4 124.6 592 125.5C595 127.1 594.7 127.2 583.5 129.5C575.1 131.1 566 133.8 564.7 135C564.3 135.3 569.4 136.2 576.2 136.9C582.9 137.5 588.6 138.2 588.8 138.5C589.7 139.3 587.6 141.2 582.7 144C576.9 147.3 577.8 147.7 586 145.6C589 144.8 591.6 144.3 591.8 144.5C592.6 145.3 579.9 152.2 575.5 153.4C563.1 156.8 562.9 157 571.6 156.6C581.2 156.3 590.2 152.6 597.2 146.2C599.6 144 602.4 142 603.4 141.9C605.1 141.5 605.3 142.1 605.1 149.5C604.9 159 603.9 163.2 600.4 169.4C599 171.9 598.3 174 598.9 174C599.5 174 603.4 170.6 607.5 166.5C611.7 162.4 615.4 159 615.7 159C617.1 159 614.6 170.1 611.4 178.1C609.2 184 608 188.6 608 192C608 196.7 608.3 197.3 614 203.6C620.1 210.4 623.1 216.8 622.9 223.4C622.9 226.2 622.8 226.3 621.7 224.6C619.7 221.4 614.8 215.9 614.3 216.4C614.1 216.6 615.1 219.6 616.6 223.1C618.7 228 619.3 231 619.2 235.8C619 247.7 617.6 248.4 614.3 238L612.5 232.5L612.2 239.8C612 243.8 612.4 248.7 612.9 250.7C615.3 259.3 610.1 253.8 607.1 244.5L605.1 238.5V243.1C605 247.8 608.9 257 612.8 261.4C614.4 263.2 614.4 263.2 612 262.6C608 261.4 601.7 256.7 599.1 253L596.8 249.5L597.5 253.5C598.3 258.3 601.2 263.2 604.8 266.1L607.5 268.3L602.6 267.6C599.9 267.3 595.7 265.9 593.3 264.6L589 262.1V264.6C589 267.3 587.5 267.8 586.6 265.4C585.5 262.6 586 260.3 588.4 256.8C589.7 254.8 591 251.3 591.3 248.9C591.6 246.5 592.9 240.9 594.3 236.5C596.8 228.3 599 211.7 597.2 213.5C596.7 214 595.1 218.7 593.7 223.9C592.2 229 590.8 233.5 590.5 233.8C589.5 234.9 588.6 232.8 586.4 223.3C585.2 217.9 584.1 213.9 584.1 214.5C584 215 583.3 222.9 582.6 232C581.8 241.7 580.6 250 579.7 252.2C577.8 256.8 572.8 260 567.8 260C562.9 260 562.7 257.6 567.1 253.4C571 249.8 576 243.1 576 241.5C576 240.9 575 240.4 573.8 240.4C571.8 240.5 571.5 239.8 570.3 231.5C568.8 221 567.2 216.3 567.1 222.1C566.9 228.9 563.9 243.3 561.7 247.8C559.2 252.8 554.4 256 549.3 256C545.1 256 545.2 255.1 549.4 252.3C551.2 251.2 553.4 248.6 554.3 246.7C556.3 242.6 556.5 232.8 554.7 228.6C553.4 225.7 553.4 225.7 552.3 231.9C551 238.4 548.2 245.2 546.5 245.7C545.9 245.9 545.5 242.6 545.5 237.2C545.5 229.7 545.2 228 543.2 225C541.9 223.1 541.1 222.4 541.5 223.5C543 227.5 543.3 240.9 542 243.9C540.6 247.5 533.5 251.3 529.3 250.8L526.5 250.5L530.2 248.3C535.4 245.2 538 240.7 538 234.4C538 230.2 537 227.2 532.5 218C523.3 199.4 511.6 185.5 496.7 175.4C493.5 173.3 491.4 171.4 492 171.2C493.2 170.8 505.2 174.6 509.4 176.7C510.9 177.5 516 181.8 520.6 186.3C528.9 194.2 529.2 194.3 534.8 194.7L540.5 195.1L535.2 192.8C532.1 191.4 527.3 187.9 523.1 183.8C516 176.9 510.6 173.7 496.5 168C482.6 162.3 483.8 161.7 501.5 165.4C507.9 166.8 516.7 169.5 521.2 171.4C525.7 173.4 529.5 174.8 529.7 174.6C529.9 174.4 528.2 172.6 525.9 170.6C521.8 167.2 512.8 163 509.2 163C508.3 163 506.8 162.5 506 161.9C504.9 161.2 506.1 161.1 510 161.4C525.6 162.9 532.2 163.1 531.6 162.2C530.3 160 520 158.6 505.8 158.5C497.8 158.5 491.4 158.2 491.6 157.8C493.5 154.7 517.7 150.3 526.9 151.4L531.5 151.9L527 150.3C524.2 149.3 517.1 148.5 508 148.1L493.5 147.5L500.3 144.7C509.2 141.1 523.6 138.7 532.4 139.3C537.8 139.7 538.9 139.5 537.4 138.6C536.2 137.9 529.8 137.5 520.3 137.5C512 137.5 505.4 137.2 505.6 136.8C506.8 135 522.5 131 528.8 130.9C538.9 130.8 533.2 129.1 520.1 128.3L509.5 127.7L516 124.6C519.6 122.9 523.9 121 525.5 120.3C528.4 119.1 528.4 119.1 524.5 119.7C522.3 120 517.4 121.5 513.6 123.1C504.6 126.9 502.1 126.8 508.9 122.9C515 119.4 530.1 104.9 526.8 105.8C525.4 106.1 524.9 105.9 525.4 105.2C525.8 104.5 526.7 104 527.5 104C528.3 104 529.2 103.5 529.6 102.9C530.3 101.7 527.6 102.1 523.6 103.6C522.4 104.1 522 103.6 522 102C522 99.9999 521.6 100.2 519 103.6C517.3 105.7 514.4 109.9 512.5 113C508.5 119.6 507 120.4 495.3 122.5C490.5 123.4 485.5 124.3 484.3 124.6C480.8 125.3 481.5 123.4 487 117.1C492.7 110.6 493.5 108.6 488.9 112.4C485.4 115.4 480 118.4 479.4 117.7C479.2 117.5 479.5 115.9 480.1 114.2C481.5 110.2 488.5 105.8 499.9 101.9L508.5 98.8999L502.3 99.4999C492.7 100.4 479.2 105.7 471.2 111.7C468.8 113.5 467.9 113.8 467.5 112.8C462.9 100.1 462.9 98.7999 467.9 93.8999C471.4 90.3999 472.3 89.9999 476.9 89.9999C482.1 89.9999 483.4 88.7999 480.4 86.5999C479 85.4999 479 84.8999 480.4 79.2999C481.3 75.9999 482 72.6999 482 72.0999C482 69.9999 473.7 75.0999 468.2 80.6999C462.2 86.5999 461.6 86.5999 460.5 79.7999C459.4 73.2999 458.2 74.6999 456.5 84.5999C455.4 90.3999 454.4 93.6999 453.9 92.8999C453.5 92.0999 452.4 86.9999 451.5 81.4999C450.6 75.9999 449.5 71.0999 449 70.6999C448.6 70.1999 447.7 74.4999 447.1 80.1999C446.4 85.8999 445.8 91.0999 445.7 91.8999C445.6 92.6999 443.8 89.9999 441.8 85.8999C439.7 81.7999 436.2 76.4999 434 73.9999L430.1 69.4999L430 75.1999C430 81.7999 429.3 83.9999 427.3 83.9999C426.6 83.9999 420.9 81.6999 414.7 78.8999C406.5 75.1999 401.9 73.7999 397.5 73.3999L391.5 72.9999L395.3 74.4999C397.4 75.2999 401.9 77.5999 405.3 79.6999C410.5 82.8999 411.1 83.5999 409.2 83.7999C408 83.9999 404.7 83.6999 401.9 83.0999C394 81.3999 386.4 81.6999 382 83.9999C379.9 85.0999 377.8 86.4999 377.5 87.0999C377.1 87.6999 378.6 87.1999 380.9 86.0999C385.9 83.4999 395.3 83.2999 403.1 85.5999C409.7 87.4999 419.9 93.3999 426.1 98.7999C431.5 103.6 439.6 113.8 438.6 114.7C437.5 115.8 431.8 112.3 424.7 106.1C421 102.8 416.2 99.3999 414.2 98.3999C409.2 96.0999 402.3 95.5999 397.6 97.1999L393.7 98.5999L401.1 99.8999C409.6 101.4 417.5 105.3 424 111.1C428.4 115.1 428.4 115.1 425.5 114.5C423.9 114.2 419.9 112.6 416.8 110.9C413.7 109.3 410.6 108 410 108C408.3 108 408.9 111.2 411.5 116.8C412.9 119.8 414 122.6 414 123.1C414 124.1 408 122 400.9 118.5C393 114.5 385.5 108.5 382 103.2C380.4 100.7 379 99.2999 379 100.1C379 104 390.1 116.3 397 120C398.4 120.7 399 121.5 398.3 121.7C397.7 121.9 393.6 120.5 389.3 118.5C382.6 115.4 380.1 113.5 371.5 104.5C365 97.6999 359.9 93.3999 357 92.0999C352.5 89.9999 345.7 89.4999 341 90.8999C339.1 91.4999 340.2 91.7999 345.5 92.3999C355.3 93.4999 359.8 95.6999 365.6 102.6C375.8 114.6 378.2 116.9 385 120.4C388.9 122.5 392 124.5 392 124.9C392 126.4 381.7 123.9 376.1 121C373 119.4 368.3 115.8 365.5 113C356.6 103.8 353.8 102.7 360.6 111C367.8 119.8 369.1 121 374.5 123.9C378.2 125.9 378.3 126.1 375.5 125.6C373.9 125.3 368.9 124.8 364.5 124.5L356.5 124L362.5 125.8C369.3 127.9 373.6 130 379.8 134.2C384 137.1 385.8 140.9 382.3 139.5C374 136.4 354.5 134.6 349.3 136.7C347.9 137.2 350.4 137.5 356.8 137.6C364.3 137.6 369.3 138.4 378.7 140.8C392.8 144.5 407.2 148.9 408.2 149.9C408.6 150.2 403.7 150.3 397.4 150.1C391 149.9 380.6 150.4 374.2 151.1L362.5 152.5L376 153.1C390 153.8 401.9 155.8 406.5 158.3C408.9 159.5 407 159.6 390.3 159.6C374.6 159.5 370.3 159.8 364 161.5L356.5 163.5L371 164.2C379 164.6 387 165.1 388.8 165.5C395.9 166.8 390.4 170.4 381 170.4H374.6L378 171.8C379.9 172.6 384.6 173.2 388.4 173.2H395.2L389.4 179.1C386.2 182.3 384 185 384.4 185C384.9 185 388.8 182.3 393.1 179C401.2 172.7 414.7 165.6 417.5 166.2C419.2 166.5 416.6 168.7 401.5 179.9C392.9 186.2 379.2 201 374.7 208.9C373.2 211.6 371.7 216.1 371.3 218.9C370.8 223.1 370.5 223.8 369.3 222.9C367.4 221.3 364.7 211.4 365.2 207.9C365.9 203.4 363.4 206.2 361 212.8C359.8 216 357.5 220.9 355.9 223.8C353.3 228.4 353.2 228.9 355 227.8C356.1 227.1 358.3 224.7 359.8 222.6C363.5 217.2 364.1 220.4 360.6 227.2C357.7 232.8 357.5 233.4 359.1 232.4C359.9 231.9 360 232.9 359.5 235.8L358.8 239.9L362.8 236C367.5 231.3 369.3 230.8 368.4 234.7C367.7 237.3 367.8 237.3 370.9 233.7C375.1 228.9 377 228.9 377 233.6V237.2L381 234C385.4 230.5 385.9 231.2 383.1 236.8C380.7 241.7 379.7 246 381 246C381.5 246 382 245.1 382 244C382 241.1 385 240.2 386.8 242.6C388.1 244.4 388.2 244.3 387.6 241.2C386.4 234.7 391.9 228.4 402.7 224.1C408.7 221.6 411.1 219.7 420.6 210.4C431.9 199.1 452.1 182.5 454.5 182.5C456.9 182.5 477.2 200.1 494.4 217.2C503.7 226.4 511.7 234 512.2 234C512.6 234 513 233.1 513 232C513 229.9 515.4 229.2 516.5 231C517.6 232.8 519.3 232.1 518.7 230.1C518 227.1 520.8 228.7 522.6 232.2C524.3 235.4 525.6 235 526.3 231C526.7 228.5 526.7 228.6 528.1 231.7C528.8 233.5 529.8 235 530.4 235C532.2 235 530 227.9 526.1 221.1C521.8 213.9 519.2 211 520.5 214.9C520.8 216 520.8 217.4 520.5 218C519.9 219 505.6 191.5 504.4 187C503.9 184.8 504.4 185.1 508.4 189C517.9 198.1 536 228.3 536 235C536 239 531.1 244.3 524.5 247.5C518.4 250.3 515.8 250.7 516.6 248.6C517 247.6 515.8 246.4 513.2 245.1C508.8 242.9 501.7 235.3 496.8 227.9C495.1 225.2 493.5 223 493.3 223C492.4 223 494.5 227.9 498.1 234.3C502.5 242.1 502.5 242 500.6 242C499.8 242 497.3 239.9 495 237.2C490.9 232.6 490.5 232.8 492.7 238.8C493.8 241.5 489.8 238.6 486.4 234.2C484.6 231.7 483 230.3 483 231.1C483 233 486.6 238.8 489.9 242.4L492.5 245.2L490 244.5C479.1 241.3 469.6 235.9 465.8 230.7C463.6 227.8 461.8 224.4 459 217.9C458.2 216 458 216.7 458.3 221.6C458.5 226 459.5 229.3 461.9 233.9C463.7 237.4 465 240.4 464.7 240.6C464.3 241.1 458.5 235 453.7 229L450.9 225.5L451.5 229.3C452 232.1 451.8 233 451 232.5C448.8 231.2 447 225.1 446.9 219.3C446.9 214.3 446.7 213.8 445.8 216C443.8 220.8 444.5 231 447.4 238.4C448.8 242.1 450 245.7 450 246.4C449.9 247 447 244.4 443.5 240.6L437 233.6L433.9 236.6C432.2 238.2 429.6 241.6 428.2 244.2C425.1 249.8 423.5 250.4 424.5 245.7C425.5 241.1 427.2 238.1 432.4 231.9C436.6 226.8 436.8 226.5 434.8 225.7C432.4 224.8 432.7 221.6 436 214.8C437.1 212.5 438 210.4 438 210.1C438 208.5 431.9 218.5 429.5 224C425.5 233.2 421.8 238.3 416.4 241.9C409.7 246.3 408.8 246.1 409.6 240C410 236.6 409.9 234.5 409 233.5C407 231.1 406.2 231.7 405.5 236C404.7 240.9 401.5 245.8 397.2 248.6C393.4 251.2 382.3 252.6 372.6 251.7C366.6 251.2 366.5 251.2 369.5 252.7L372.4 254.3L370 255.2C365.6 256.9 355 255.3 348.8 252.1C345.6 250.5 343 249.5 343 250C343 251.6 348.2 257.1 351.1 258.6C354.8 260.5 354.9 262.2 351.3 261.4C345.7 260.1 327.2 251.9 323.1 248.9C320.8 247.2 317.8 244.1 316.4 242.1C314.3 239.2 314 239 314.5 241C315.6 244.7 318.9 251 321.6 254.7C322.9 256.4 324 258.2 324 258.5C324 260.2 318 254.5 313.5 248.5C309 242.6 308.5 242.1 308.2 244.4C307.8 247.5 310.3 252.5 314.3 256.7C316 258.5 317.1 260.3 316.7 260.6C315.5 261.8 307 256.8 303.6 252.8C299.3 247.8 298 242.2 298 228.5C298 222.7 297.6 218 297.2 218C295.6 218 293.7 231.7 294.2 239.2C295 252.1 301.6 261.8 312.1 265.8C316.2 267.4 316.9 267.9 315 268C302.8 268.8 295.6 264.1 289 251C287.3 247.7 285.8 245 285.6 245C285.4 245 285.7 247.4 286.4 250.2C288.1 257.3 291.3 263.3 294.7 265.8C298.8 268.8 297.1 269.2 291.5 266.6C286.6 264.3 283.4 261.4 281.2 257.5C280.6 256.4 280 256.1 280 256.8C280 259.3 284 265.8 287.2 268.5L290.5 271.2L285.2 270.6C275.9 269.7 270.2 264.8 269.9 257.5C269.8 255.3 270 248.8 270.5 243C271 235.5 270.9 230.8 269.9 226.5C268.7 221 268.6 220.7 267.9 223.5C267.6 225.1 267.2 229.2 267.1 232.5C267.1 235.8 266.3 242.3 265.5 247C264.7 251.7 264 257 264 258.8C264 263.7 267.5 269.7 272.5 273.2C275 275 277 276.7 277 277.1C277 278.3 268.3 280 261.9 280C254.3 280 250.4 277.8 246 271.3C240.6 263 238.9 254.4 241.1 245C242.2 240 247 229.8 250 226L252 223.5L251.4 226.7C250.4 231.6 251.8 230.7 254.7 224.4C257.4 218.4 257.4 217.2 255.4 195.5C255.1 191.6 255.2 186.9 255.8 185L256.7 181.5L257.5 184.5C258.7 189.1 262.2 197 263 197C263.4 197 264.3 193.4 265.1 189C265.8 184.6 266.7 181.3 267.2 181.8C267.6 182.2 269.1 185.7 270.4 189.5C272.4 195.1 272.9 195.9 272.9 193.4C273 189.3 270.4 180.7 266.9 173.8C265.3 170.6 264 167.7 264 167.3C264 166.9 267.3 170 271.3 174.2C279.2 182.8 281.4 183.9 280 178.8C279.4 177.1 275.8 172.3 271.5 168C264.9 161.2 262.3 157 264.8 157C267.6 157.1 278.3 160.4 288.2 164.3C303.2 170.3 305.5 170.4 299.4 164.8C294.8 160.6 294.7 159.4 298.9 158.8C303.8 158.2 302 156.3 295.3 155.1C280.7 152.5 284.8 150.4 302.4 151.3C308.5 151.7 316.2 152.6 319.5 153.4L325.5 154.9L322.5 152.4C320.9 151.1 317 149 314 147.7C309.2 145.8 306.8 145.5 295 145.6C273.1 145.7 259.3 150.1 242.6 162.5C238.3 165.6 234.6 167.9 234.3 167.7C233.5 166.9 242.3 158.6 251.3 151.7C255.5 148.4 258.8 145.5 258.6 145.3C258.4 145 256.2 145.4 253.9 146C248.2 147.5 240.5 152.8 234.1 159.5C231.3 162.5 229 164.4 229 163.8C229 162.2 236.9 147.5 240.6 142.3C242.5 139.7 243.6 137.4 243.1 137.2C241.9 136.8 228.2 143.3 219.8 148.1C216.2 150.3 212.8 152 212.4 152C210.3 152 224.6 140.1 238 130.8L240.5 129L237.5 129.6C235.9 130 231.2 131.3 227.1 132.7C223.1 134 219.5 134.8 219.2 134.5C217.9 133.3 225.1 127.6 232.5 123.9C244.9 117.8 254.7 116.9 267.6 120.6C269.4 121.1 269.6 120.8 269.2 118.1C268.8 115 268.8 115 273.5 115C276 115 279 115.5 280.1 116C281.6 116.8 282 116.7 282 115.7C282 113.6 278.2 109.2 275.1 107.5C272.9 106.4 259 104 254.8 104C254.3 104 254 103.5 254 103C254 102.4 256.5 102 259.5 102C262.7 102 265 101.6 265 100.9C265 99.0999 256.3 95.9999 249.6 95.2999C242.5 94.6999 242.1 93.7999 247.8 91.3999C252.5 89.2999 262.4 89.2999 267.3 91.2999C269.3 92.1999 271 92.4999 271 91.9999C271 90.6999 264.6 87.0999 261 86.2999C257.7 85.6999 257.7 85.6999 260.1 84.7999C261.4 84.1999 267 84.0999 272.5 84.3999C282.9 84.9999 290 84.1999 290.2 82.4999C290.2 81.8999 286.4 77.9999 281.7 73.5999L273.1 65.7999L263.7 67.3999C258.5 68.2999 252.6 68.9999 250.6 68.9999C248.6 68.9999 247 69.3999 247 69.8999C247 70.8999 255.4 73.9999 258.2 73.9999C261.4 73.9999 260.1 75.7999 256.3 76.4999C252.7 77.0999 232.4 87.0999 227.9 90.3999L225.5 92.1999L228 91.4999C229.4 91.0999 231.4 90.5999 232.5 90.2999C236.1 89.2999 232.2 92.8999 226.6 95.6999C222.9 97.5999 220.7 98.0999 217.8 97.6999C214.3 97.1999 214.1 97.2999 215.1 99.0999C215.6 100.2 217.6 101.8 219.4 102.7L222.8 104.3L215.4 111.6C211.3 115.7 208 119.5 208 120C208 120.6 209.4 121 211 121C212.7 121 214 121.3 214 121.6C214 121.9 211.7 124.7 208.9 127.8C204.5 132.8 204.1 133.5 205.9 133.8C207.1 134 208 134.3 208 134.6C208 136.3 202.3 145.7 199.3 149C195.9 152.9 195.9 153 198.1 153C199.4 153 202.4 151.9 204.8 150.5C207.1 149.2 209 148.4 209 148.7C209 149 207.2 151.4 205 154C200.8 159 192 172.8 192 174.3C192 174.9 194.8 172.3 198.1 168.6C201.5 164.9 204.4 162.1 204.7 162.3C204.9 162.5 204.5 164 203.9 165.6C203.3 167.2 201.8 172.5 200.5 177.5L198.3 186.5L185.9 196.5C171.3 208.3 148.8 229.9 138 242.5C107.2 278.5 81.9 322.8 66.3 368.5C56.7 396.5 48.8 437 47.8 463.4C47.6 470.5 48 470.8 58.6 470.9C72.8 471.1 85.7 466.3 110.5 451.6C127.8 441.3 133.6 438.4 142.5 435.3C149.8 432.8 165.4 431.1 170.3 432.4L172.9 433L167.1 444.5C163.8 450.8 160.3 458.3 159.2 461.2L157.2 466.5L148.9 467.1C135.2 468.1 127.9 471 104.8 484.7C85.7 496.1 71.4 499.8 52.5 498L47.5 497.6L47.7 502C47.8 504.5 48.2 510.9 48.6 516.2L49.2 526H57.9C72.5 526 84.8 521.5 104.2 509.2C121.9 498 133.8 493 143.3 493C146.9 493 147.2 493.2 146.8 495.2C146.5 496.5 145.2 502.7 144 509.1L141.6 520.7L133.6 521.9C124 523.2 117.1 526.3 102.3 535.8C96.4 539.6 89.7 543.6 87.5 544.8C79.8 548.6 70.1 551 61.9 551C57.6 551 54 551.3 54 551.6C54 552.5 58 572.3 58.6 574.2C59.3 576.5 65 576.6 73.3 574.4C80.8 572.5 88.5 568.6 98.7 561.7C113.8 551.5 122 547.8 132.3 546.5L138 545.8V550.2C138 552.7 137.7 558.1 137.4 562.2L136.7 569.7L130.6 570.2C122.5 570.9 116.8 573.5 105 582C93.3 590.4 82.8 595.5 73.7 597.2C65.7 598.7 65.8 597.9 71.1 612.3L74.3 621.2L77.4 620.6C83.2 619.4 92.4 614.3 101.9 607.1C115.4 596.9 126.3 592.3 135.2 593.2L138.5 593.5L139.7 602C140.3 606.7 140.9 611 140.9 611.6C141 612.2 138.5 613 135.1 613.3C126.4 614.2 119.4 617.3 111.5 623.5C101 631.8 93.1 636.9 87.8 638.8C85.2 639.7 83 640.9 83 641.4C83 643.2 95.3 666 96.4 666C97 666 101.3 662 106 657.1C118.9 643.7 128.4 638.3 142.2 636.6L146.9 636.1L148 641.3C149.7 649.6 149.5 649.5 159.1 647.1C175.5 643 193.4 632.3 206.4 619.1L212.4 613L210.6 605.8C204.3 580.1 209 564.2 233.4 529.6C239.9 520.4 246.8 509.3 248.8 505.1C252 498.4 252.5 496.5 252.8 488C253.2 478.3 253.1 477.9 246.5 447.5C240.3 418.8 242.9 394 254.6 370.5C258.8 362.1 270.7 344.4 271.6 345.3C271.8 345.5 269.5 350.9 266.5 357.2C256.8 377.4 252.7 400 255 421.3C256.2 432.9 258.8 447.1 262 458.5C265.1 469.7 267 481.7 267 489.4C267 503.7 262.5 513.8 247.7 532.8C227 559.3 219.8 576.8 222 594.4C224.2 611.6 232.9 631.1 247.5 651.4L253.1 659.3L245.3 667.2C224.7 688.1 198.7 701.6 175.3 703.6C170.5 704 165.5 705.1 162.2 706.6C156.4 709.2 148.2 716.4 141.9 724.6C138.3 729.3 137.9 730.2 139.1 731.8C143 736.8 156.3 752 159.7 755.3L163.6 759L167.4 753.6C169.5 750.6 173.3 746.2 175.8 743.7C180.3 739.6 189.8 733.3 190.4 734.1C193.4 738.1 199.2 747.1 198.9 747.3C198.7 747.5 196.4 748.8 193.9 750.3C188.9 753.1 178.9 763.3 176.5 768L175 770.9L183.8 778.7C197.6 790.8 222.7 810 224.9 810C225.3 810 226.3 806.1 227.3 801.2C229.8 789.3 236 776.9 246.1 764.1C269.7 734 279.3 709.4 279.3 679V666.5L282.7 674C290.9 691.9 292.1 709.6 286.1 725.9C282.3 736.4 279.6 741.1 265 763.5C251.9 783.6 247.6 791.6 243.3 804C238 819 237.8 817.8 247.8 823.7C256 828.5 266.4 834 267.3 834C267.6 834 268 828.3 268.2 821.2C268.6 809.9 269 807.3 272.3 797.8C276.2 786.3 281 776.1 290 760.5C307.4 730.2 310 718.9 304.6 696.7C303.3 691.4 302.4 687 302.6 687C302.8 687 304.2 688.9 305.6 691.3C310.2 698.6 319.1 709 323.7 712.2C328.7 715.8 328.6 714.8 324.4 732.8C321.3 746.3 317.4 754.3 305.2 772.8C290.5 795 285.6 809.7 284.8 832.8L284.5 843.1L292.5 846.6C296.9 848.5 304.6 851.6 309.5 853.5C314.5 855.3 319.3 857.2 320.2 857.5C321.9 858.2 321.9 857.9 320.5 854C315.2 838.9 314.8 818.5 319.5 802.5C320.9 797.5 326.3 784.7 331.4 774C340.9 754.1 346.9 739.5 349.1 730.5C349.7 727.7 350.6 725.1 351.1 724.6C352 723.5 362.1 729.6 368.2 734.9C370.7 737.1 374.9 742.1 377.5 745.8L382.2 752.7L380 757.1C378.7 759.5 374.2 767.6 370 775C352.7 805.2 347.1 819.3 346.3 835C345.8 842.9 346.1 846 348 853C349.2 857.7 350.3 862.6 350.5 864C350.6 865.7 351.5 866.6 353.6 867.2C358.8 868.8 384.4 874 386.7 874H388.9L386.5 868.2C381.1 854.9 379.6 836.9 382.6 822.3C384.6 812.6 389.2 799.9 396.5 783.8C402.1 771.4 402.4 771 405.4 771C414.5 771 433.6 774.8 443.3 778.5C446.4 779.8 445.1 777.2 439.5 771.2C436.5 767.9 434 764.9 434 764.6C434 763.6 440 766.9 444.5 770.3C446.7 772 451.5 776.2 455.1 779.7C461.4 785.9 461.7 786 461.7 783.3C461.7 776.9 469.1 766.7 478 761C480.8 759.2 483.3 758 483.6 758.3C483.9 758.5 481.7 761.5 478.8 764.9C473.4 771 466.4 781.7 467.1 782.5C467.4 782.7 471.6 780.3 476.5 777C481.5 773.8 490.3 768.7 496.2 765.6L506.8 759.9L518.4 782.4C531.2 807.1 534.1 814 536.4 825.3C539.2 838.7 538 854.2 533.1 866.9C532 869.9 531.2 872.5 531.4 872.7C531.8 873.2 553.8 868.5 562 866.2C566.4 865 568.4 863.9 568.2 863C568 862.3 568.8 858.2 569.9 854.1C572.9 842.5 573.3 835.7 571.5 825.7C568.8 810.3 562.5 797.1 545.3 770.7C540.8 763.7 537 757.6 537 757.3C537 755.3 557.4 732.3 562.1 728.9L564.9 726.9L569.1 735.2C571.4 739.8 576.9 749.8 581.3 757.5C591.8 775.8 598.2 789.4 601.6 800.5C604.1 808.6 604.4 811 604.4 824.5C604.4 837.2 604.1 840.5 602.2 846C601 849.5 600.3 852.6 600.5 852.8C601.4 853.8 630.8 840.2 635.3 836.8C636.9 835.6 637.2 834 637.1 826.5C636.9 808.6 632.3 797.3 612.8 767.7C600.1 748.3 588.9 728.1 586.1 719.4C584.8 715.4 584.9 715.1 588.8 708.6C591.2 704.6 594.7 696 597.6 687C600.3 678.8 602.8 672.1 603.1 672C603.4 672 604 676.7 604.3 682.3C605.9 708.3 612.3 725.1 631.6 753.7C649 779.3 655.5 795.6 656.7 815.8C657.2 823.3 657.6 825 658.7 824.6C660.8 823.8 680.9 810 681.6 808.9C682.6 807.3 677.2 792.8 672.7 784.9C670.4 780.9 663.8 771.3 658.2 763.7C637.6 736.3 630 720.5 627.5 700.1C626.7 694.1 627.8 678 628.9 678C629.3 678 630.3 680.6 631 683.7C635.7 705.2 644.5 721.2 665.5 747C677.7 762.1 683.8 770.7 687.5 778C690.9 784.8 694 793.6 694 796.6C694 797.9 694.4 799.1 694.8 799.4C696.7 800.5 735 767.3 735 764.5C735 761.7 723.2 750.3 718 748.1C715.3 746.9 713 745.7 713 745.5C713 745.1 720.7 733 721.5 732.2C722.2 731.4 730.1 736 734.8 739.8C737.3 741.8 741 745.6 743 748.2L746.7 752.8L751.2 748.2C756.9 742.3 769 727.1 769 725.9C769 725.4 765.6 721.4 761.4 717C750.9 706 744.8 703 731.9 702.5C716.2 701.9 698.5 696.3 682.8 686.9C675.6 682.7 658.6 669.4 653.8 664.3L651.1 661.5L654.9 656.5C665.4 642.5 677.6 618.6 681.1 605.1C682.8 598.4 683.1 594.7 682.8 587.6C682 572.2 677.5 562.8 658.5 537C645.5 519.4 640.6 510.4 638.4 499.9C636.3 490.2 637 481.7 642 458.2C646.9 434.3 648.4 421.3 647.7 407.5C646.8 389.1 642.6 373.9 633.9 357C628.3 346.2 628.3 346.1 630.8 348.4C634.6 351.7 643.1 364.8 647.5 374.3C659.4 399.5 661.9 426.5 655.4 459C651.7 477.5 651.5 494.8 654.9 503.3C656.1 506.5 663.5 518.7 671.2 530.3C678.9 542 687 555 689.2 559.4C697 574.8 698.8 589.1 694.9 605L692.9 613.5L700.7 620.9C713.3 632.9 727.2 641.2 742.7 646C752.9 649.2 753.7 648.9 754.7 642.8L755.6 637.5L760.8 637.8C766.7 638.1 775.5 641.1 781.3 644.7C783.4 646 789.7 651.4 795.2 656.6C800.8 661.8 805.6 666 806 666C806.8 666 816.6 645.4 817.2 642.6C817.4 641.2 816.6 640.5 813.5 639.5C807 637.6 801.9 634.6 792.9 627.4C783 619.5 774.6 615.3 765.9 613.9C762.4 613.3 759.4 612.8 759.3 612.6C759.1 612.5 759.3 608 759.7 602.7C760.3 593.1 760.3 593 762.9 593C772.5 593.1 785.9 598.8 799.1 608.6C811.8 618 824.9 623.3 827.1 619.9C828.1 618.3 834 600.5 834 599C834 598.4 832.3 598 830.3 598C824.7 598 814.6 595.4 808.7 592.4C805.9 590.9 799.2 586.8 794 583.2C781.8 574.8 773.8 571.1 765.8 570.2L759.5 569.5L758.8 563C758.5 559.4 758 554.1 757.7 551.1L757.3 545.7L762.9 546.3C771 547.2 779.9 550.5 788.7 555.9C793 558.6 800.2 563 804.8 565.8C814.8 571.9 823.1 574.8 832.6 575.7C840.9 576.4 840.1 577.4 842.5 563.5C844.7 550.2 845.5 551.3 833.8 550.8C820.5 550.1 814.7 547.9 794.9 535.9C778.7 526.1 770.4 522.6 760.1 521.3L753.7 520.5L752 511.9C751 507.1 749.5 500.9 748.7 498.1L747.2 493H752.4C763 493 773.1 497 791 508.3C811.8 521.4 821.2 525 836.2 525.7L846.8 526.3L847.4 521.9C847.7 519.5 848.2 513.2 848.6 507.9L849.2 498.2L836.8 498.3C818.5 498.5 810.3 495.8 784.4 480.9C765.5 470 759.4 467.8 747.4 467.2L737.4 466.8L735.1 460.6C733.8 457.3 730.3 449.8 727.4 444.1C724.5 438.3 722.4 433.2 722.7 432.7C723 432.1 727.9 432 734.4 432.3C751.8 433.1 760.6 436.5 788.8 453.3C805.3 463.2 814.8 467.4 825.6 469.6C833.1 471.2 846.1 471.2 847.6 469.7C848.7 468.7 846.3 445 843.5 428.5C832.7 364.6 805.2 302.9 765.4 253C746.2 228.9 712.5 197.6 690.3 183.2C686.4 180.6 683.1 178.2 683.1 177.7C683 177.3 684.6 177 686.5 177C690.7 177 691 175.5 688.1 168C686.1 162.6 686.3 162.1 689.8 164.6C692.2 166.3 692.5 165.9 691 163.2C690.5 162.3 689 159 687.7 155.9C686.4 152.9 683.8 148.7 682 146.7C678.9 143.1 678.8 143 681.1 143C682.4 143 685.9 143.7 688.8 144.4C691.6 145.2 694 145.5 694 145.2C694 143 686.9 132.7 682.2 128.2C679.2 125.3 677.1 122.6 677.4 122.3C677.7 121.9 681.2 123.3 685.1 125.3C691.2 128.5 691.9 128.7 690.6 126.8C686.5 121 673 108.5 668 105.9C662.8 103.2 662.7 103.1 665.6 103C667.3 103 670.6 103.7 672.9 104.5C676.8 105.8 677 105.8 676.1 104.2C674.9 102 666.4 93.9999 662.7 91.5999C659.2 89.1999 659.2 87.5999 662.8 88.3999C665.4 88.9999 665.3 88.8999 661.6 85.4999C659.4 83.5999 654.5 80.2999 650.6 78.1999C639.1 71.9999 641.3 69.8999 654.5 74.4999L661.5 76.8999L656.5 72.2999C650 66.2999 640.2 61.6999 626.2 58.1999C620 56.5999 614.5 54.8999 614 54.3999C613.4 53.7999 616.8 53.4999 622.8 53.4999C633.2 53.4999 647.2 51.1999 644.9 49.9999C644.1 49.5999 636.3 48.9999 627.5 48.6999C612.5 48.2999 610.6 47.9999 597 44.0999C586.8 41.1999 580.6 39.9999 576.1 39.9999C572.4 39.9999 570 39.5999 570.6 39.0999C571.8 37.9999 579 36.2999 586.2 35.4999C589.8 34.9999 591.7 34.3999 591.3 33.6999C590.5 32.2999 571 33.4999 564.2 35.3999C561.3 36.1999 554.1 39.0999 548.2 41.8999C537.5 46.9999 530.9 48.6999 534 45.5999C536.9 42.6999 552.9 34.0999 560.1 31.4999C568.2 28.5999 579.4 25.9999 584.3 25.8999C587 25.8999 587.2 25.6999 585.5 24.9999C582.9 23.9999 567.8 23.0999 563 23.5999ZM436.7 91.1999C439.5 94.3999 441.3 97.9999 440 97.9999C439.5 97.9999 438.5 97.0999 437.8 95.9999C437.1 94.8999 436.1 93.9999 435.6 93.9999C435.2 93.9999 436.4 95.7999 438.4 97.9999C442.8 102.8 442.9 104 439.1 104C435 104 431 99.0999 431 94.0999C431 88.3999 433.1 87.2999 436.7 91.1999ZM632 101.1C651.5 105.8 651.7 105.9 640.5 105.7C631.9 105.5 629.6 105 623.8 102.5C617.5 99.6999 615.4 97.9999 618.2 97.9999C618.9 97.9999 625.1 99.3999 632 101.1ZM460.6 117.4C462.7 123.3 464.9 128.4 465.4 128.5C466 128.7 473.1 129.2 481.3 129.5C489.4 129.9 496 130.5 496 130.9C496 131.2 490.8 135.3 484.4 139.9C478.1 144.5 472.6 148.8 472.4 149.5C471.9 150.7 479.4 177.8 481.2 181.2C481.7 182.2 481.8 183 481.6 183C481.3 183 475.5 178.5 468.8 172.9C462 167.4 455.8 162.5 455 162C453.9 161.4 449.8 163.7 440.6 170.1C433.5 175 427.5 178.9 427.3 178.6C427 178.3 428.9 171.9 431.4 164.3C433.9 156.7 436 150 436 149.4C436 148.9 430.6 144.4 423.9 139.6C417.3 134.7 412.1 130.6 412.4 130.3C412.7 130 419.5 129.5 427.5 129.1L442.2 128.5L446.7 118C449.1 112.2 451.8 105.9 452.7 104L454.2 100.5L455.6 103.5C456.3 105.1 458.6 111.4 460.6 117.4ZM263.6 108.3C266.5 109.8 268 111.8 268 114C268 114.4 265.9 114.1 263.3 113.3C256.2 111.1 240.8 112.1 230.1 115.4C225.4 116.8 221 118 220.3 118C216.1 118 225.8 111.6 235 108.3C240.5 106.4 243 106 251 106.3C257.2 106.6 261.6 107.2 263.6 108.3ZM627 124.6C634.4 124.9 642.1 125.4 644 125.7C647.1 126.3 646.6 126.5 640.5 127.1C626.5 128.4 617.8 128.1 613.3 126C608.8 124 607.4 122.3 611.3 123.5C612.5 123.8 619.6 124.4 627 124.6ZM661 157.4C660.4 160 659.9 165.2 659.7 169.1C659.6 172.9 659.2 176 658.9 176C657.6 176 656 170.7 656 166.4C656 162 657.9 156 660.2 153.3C661.9 151.2 662.2 152.3 661 157.4ZM626 166.7C626 171.3 625.4 174.5 624.2 176.7C622 180.7 611.7 194.1 611.2 193.6C610.3 192.6 613.6 183.9 618.6 174.4C621.6 168.7 624 163.1 624 162C624 160.9 624.5 160 625 160C625.6 160 626 162.9 626 166.7ZM632.8 173.9C633.2 177.3 629.1 185 626.9 185C625.7 185 625.8 184.4 628.1 175.2C629.7 169.1 632.3 168.3 632.8 173.9ZM407.2 183.8C405 187 401.6 192.7 399.6 196.5C395.9 203.9 395.7 203.9 396 197.5L396.2 193.5L394 195.5C391.2 198.1 387.7 205 385.6 212.2C383.9 218.2 380.5 221.8 377.5 220.6C372.8 218.8 378.9 205.4 389.6 194.1C396.2 187.1 409.8 176.6 410.9 177.6C411.1 177.8 409.5 180.6 407.2 183.8ZM640 179.4C640 180.7 638.5 183.7 636.7 186.1C634.8 188.5 632.6 191.8 631.7 193.5C629.9 196.9 629.5 195.2 631 190C632 186.4 638 177 639.3 177C639.7 177 640 178.1 640 179.4ZM253.5 187.4C252.7 191.1 252 196.3 252 199C252 204.1 250.6 206.4 249.5 203C248.5 199.8 247.5 200.7 245.6 206.5C243.5 213.3 242.3 214.1 241.4 209.4C240.3 203.6 241.6 194.6 244.3 188.6C247.3 182.2 248.4 181.5 247.8 186.5C247.6 188.4 247.5 190 247.7 190C247.8 190 249.4 187.2 251.2 183.7C254.9 176.4 255.8 177.8 253.5 187.4ZM669 192C671.3 197.5 674.1 203.2 675.2 204.6C678 208.1 676.9 208.6 673.1 205.4C669.1 202.1 666.4 196.8 664.5 188.8C661.8 177.4 663.3 178.4 669 192ZM501.3 189.3C506.4 196 508.9 203 505 199.5C502.4 197.1 495 186.4 495 185C495 183.2 498.7 185.7 501.3 189.3ZM661.3 189.5C661.6 191.3 661.4 197.3 660.9 202.7C659.8 213.4 660.4 221.8 662.5 226.5L663.8 229.5L664.5 226.2C665.5 222 666.6 223.6 667.5 230.5C667.9 233.2 669.2 238.1 670.5 241.2C671.7 244.4 672.4 247 672 247C670.6 247 667 241.3 666.4 238.1C665.1 231.9 664.5 235.3 664.7 247.2C664.9 261.4 664.5 260.7 660 238C658.2 229.2 656.6 217.6 656.3 211.2C656 205.1 655.4 200 655 200C653.9 200 647.2 214 646.4 217.8C646 219.6 645.4 221 644.9 221C641.2 221 655.9 186.1 659.6 186C660.2 186 661 187.6 661.3 189.5ZM219.8 192.7C224.9 199.3 226.2 203.7 224.4 208.4C223.4 211.1 222 210.2 222 206.7C222 202.6 217.3 193 215.4 193C214.5 193 212.9 195.1 211.7 197.7C210.4 200.8 209.5 201.9 209.2 200.8C208.7 198.1 213.9 189 216.1 189C216.5 189 218.2 190.7 219.8 192.7ZM493.8 192.4C497.5 194.3 500.3 197.6 503.4 203.5C507.7 211.8 506.1 217.1 499.5 215.4C494.2 214.1 490.7 207.4 489.4 196.2C488.7 190.5 489.2 190 493.8 192.4ZM643.6 196.7C642.8 198.3 640.3 201.8 638.1 204.5C635.8 207.3 633.5 211.3 632.9 213.5C630.8 221.3 629.9 221.8 630.3 215C630.8 207 633.3 201.7 639.7 195.2C643.3 191.6 644.4 190.9 644.7 192.2C644.9 193.1 644.5 195.2 643.6 196.7ZM414.6 198.1C414.2 200.4 413.2 203.6 412.4 205.4C410.4 209.2 403 217 401.3 217C399.3 217 398.6 212.2 399.9 207.8C401.4 202.9 409.9 194 413.1 194C415.1 194 415.2 194.4 414.6 198.1ZM224.6 227.5C223.9 230.1 219.3 236 217.9 236C217.4 236 218.6 232.7 220.7 228.7C223.2 223.9 224.5 222.1 224.8 223.3C225 224.3 224.9 226.2 224.6 227.5ZM648.9 236.4C648.4 239 647.3 243.5 646.5 246.4C645.3 250.1 645.1 253.6 645.6 259.1C646.3 267.6 645.1 271.2 640.3 275C636.8 277.8 636.2 276.1 639.1 271.4C641 268.3 641.4 266.1 641.6 257C641.8 246.6 644.7 231.4 647.3 226.5C648.3 224.7 648.4 224.8 649.1 228C649.5 229.9 649.4 233.7 648.9 236.4ZM632 237.8C632 245.2 630.4 248.8 627.6 247.7C626.7 247.3 626 246 626 244.6C626 241.6 630 231 631.1 231C631.6 231 632 234.1 632 237.8ZM639.6 235.2C639.3 236.5 638.5 242.4 637.9 248.5C636.7 260.3 635.1 267.2 633.5 267.7C632.9 267.9 632.6 266 632.8 263C633.2 257.9 632 256.5 630.1 259.7C629.3 261.1 629.1 261.2 629.1 260C629.1 259.2 629.7 257.6 630.6 256.5C631.4 255.4 632.5 252.7 633.1 250.5C635.3 241.4 638.3 233 639.2 233C639.8 233 640 234 639.6 235.2ZM233.5 257.8C233.5 265.2 233.9 267.4 236.2 272.3C239.5 279.2 237.8 279.4 233.6 272.6C229.9 266.7 229 258.3 231.3 252.7C232.2 250.7 233 249 233.2 249C233.4 249 233.5 252.9 233.5 257.8ZM624.1 257.3C622.8 258.6 622.6 254.2 623.8 251.3C624.3 249.9 624.6 250.3 624.8 252.9C625 254.7 624.7 256.7 624.1 257.3ZM479.5 252C514.1 253.9 547.3 259.6 576.6 268.5C584.8 271 585.6 271.5 595.9 280.9C602.6 287.1 608.5 293.7 611.8 298.5C614.7 302.8 616.9 306.5 616.6 306.7C615.2 308.1 596.9 294.5 589.6 286.7C586.4 283.3 586 283.1 587.5 285.5C588.5 287.1 590.7 290.3 592.5 292.5C596.5 297.4 602 306.1 602 307.3C602 307.8 599.1 305.5 595.6 302.2C588.3 295.4 575.6 285 574.6 285C573.4 285 578 292.9 582.5 298.4C585 301.5 587 304.2 587 304.5C587 304.8 584.7 304.1 581.9 303.1C576 300.8 571.1 297.3 565.1 291.1C561.5 287.3 560.9 286.9 561.5 289C561.9 290.4 563.2 292.8 564.2 294.3C567.2 298.5 565.5 298.9 561.4 294.9C557 290.8 548.1 279.7 545.5 275.2C544.4 273.5 543.2 272 542.7 272C541.5 272 543 279 545.2 283.2C546.2 285.3 546.6 287 546.2 287C545.2 287 535.7 279.8 528 273.2C525.3 270.8 523 269.1 523 269.5C523 270.2 525 272.5 538.1 287.4L542.5 292.4L536.5 288.5C520.5 278.1 501.5 268.2 500.1 269.5C499.5 270.2 504.2 274.8 509.5 278.7L512.5 280.9L509.9 281C505.8 281 495.9 277.3 491.1 273.8C487.2 271 486.8 270.9 487.5 272.9C488.5 276 486.2 275.6 477 271C472.1 268.5 469 267.5 469 268.2C469 268.9 472.2 272.5 476 276.2C480 280 482.4 283 481.5 283C480.7 283 476.8 281.4 473 279.5C464.9 275.4 463.4 275.3 458 278.1C453.2 280.6 452.3 280.2 454.3 276.3C456.2 272.5 457.2 268 456.2 268C455.7 268 454.5 268.8 453.6 269.9C452.7 270.9 449.3 272.3 445.9 272.9C442.6 273.6 437.1 275.4 433.7 277.1C427.7 279.9 425 280.6 425 279.4C425 279.1 426.6 276.8 428.5 274.3C430.4 271.8 431.8 269.5 431.6 269.3C431.4 269.1 428.3 270.5 424.8 272.5C419.6 275.3 414 277 414 275.7C414 275.6 414.7 273.1 415.4 270.2C416.2 267.4 416.6 265 416.4 265C416.2 265 412.9 267.6 409 270.8C403 275.9 390 284 390 282.7C390 282.4 393.8 278.5 398.5 273.9C403.2 269.4 406.8 265.5 406.6 265.3C406 264.7 388.2 274.8 381.5 279.5C375.2 284 367.8 288 366 288C365.4 288 368.9 284.7 373.8 280.6C378.6 276.5 383.3 272.4 384.1 271.4C385.4 269.8 385.3 269.8 382.4 271.3C380.7 272.2 377.3 274.4 374.8 276.3C361.6 286.4 347.4 294.6 344.7 293.7C344.2 293.6 347.5 290.7 352.1 287.3C356.7 283.9 363.2 278.4 366.5 274.9C373.5 267.7 373 267.9 359 278.1C345.8 287.7 328.8 298 326.3 298C325.9 298 327.5 296.2 330 294C332.5 291.9 333.9 290.1 333.2 290C332.5 290 327.6 292.3 322.4 295.1C307.6 303.1 308.1 300.4 323.9 288C333.2 280.7 332.7 279.1 322.6 283.8C313.8 287.9 302.3 295.8 294.5 303.1C288.6 308.7 286.1 309.4 289.3 304.5C290 303.4 292.1 299.8 293.9 296.5L297.1 290.5L294.3 293.6C292.8 295.3 290.5 298 289.3 299.6L287 302.5L288.1 299.5C290.2 293.4 295.4 284.8 298.9 281.8C306.2 275.4 309.7 274.4 357.5 264.5C369.6 261.9 384 258.8 389.5 257.5C402.6 254.3 413.7 252.9 432.9 252C456.1 250.9 459.9 250.9 479.5 252ZM228.3 275.2C230.6 286.2 231.6 296.8 230.2 295.5C227.3 292.7 223.2 267 225.6 267C226.1 267 227.3 270.7 228.3 275.2ZM670 279.1C671.7 283.6 672.9 287.4 672.6 287.7C670.9 289.4 666.6 281.8 665.5 275.2C664.4 268.3 666.6 270.2 670 279.1ZM651 273.9C651 275.9 646.7 281 645 281C643.3 281 643.8 279.7 647.1 275.7C650.6 271.5 651 271.3 651 273.9ZM607.1 278C629.9 283.8 633.9 287.1 642.1 305.9C646.2 315.4 646.9 320.7 644.7 324.9C642.7 328.9 641 328.7 641 324.3C641 319.2 637.3 309.1 632.1 300L627.8 292.5L628.3 298C628.6 301 629.2 304.4 629.5 305.5C630 306.9 629.2 306.4 626.9 304C625 302 620.1 297.9 616 294.8C608.4 289.1 595.9 276 598 276C598.7 276 602.8 276.9 607.1 278ZM287.7 287.1C281.8 293.6 275.5 304.8 272.5 314C271.5 317 270.5 318.9 270.2 318.1C269.5 315.9 272 306 274.7 300.5L277.1 295.5L273.5 299.5C271.5 301.7 268.3 306.1 266.3 309.3C264.3 312.4 262.5 314.9 262.4 314.7C261.7 314.1 266.6 302.6 269.2 298.4C272.7 293 280.5 286.1 287 282.8C290 281.3 292.6 280.2 292.8 280.5C293 280.7 290.7 283.7 287.7 287.1ZM142.1 288.7C157.4 303.2 168.1 325.4 169.7 346.2C170 350.5 170.7 354 171.1 354C171.5 354 175 352.5 178.7 350.6C192.3 343.8 203.9 341 219.3 341C228.5 341 240.4 343.2 245.4 345.7L248.4 347.2L245.4 349.4C228.2 361.9 208 381.7 194.1 399.8L184.7 412L180.6 411.2C178.3 410.8 170.2 410.5 162.5 410.6C149.3 410.6 148 410.8 139.8 413.8C134.9 415.6 124.1 420.6 115.8 424.8C95.5 435.2 88.3 437.5 75.8 437.5C62 437.5 61.9 437 72 426.3C94.6 402.4 114.8 369.2 123.9 340.7C128.9 325 130.3 314.6 129.6 298.8C129.1 285.5 129.1 285 131.2 283.5C132.5 282.7 133.8 282 134.2 282C134.6 282 138.2 285 142.1 288.7ZM764.8 284.7C765.4 285.7 766 294.1 766.3 303.5C766.9 321.4 768.2 328.9 773.5 345C781.8 370.4 800.9 401.1 823.6 425.7C830.3 433 832 435.4 831.1 436.3C830.3 437.1 826.5 437.5 820.7 437.5C809.1 437.5 803.2 435.5 781 424.5C761.5 414.8 752 411.4 739.9 409.9C731.6 408.9 718.4 409.7 711.4 411.6C709.8 412 708.8 411.2 706.7 408.1C696.2 392.2 667.9 361.4 655.2 352C651.8 349.5 649.1 347.2 649 346.9C649 345.7 656.3 343 664.2 341.4C680.2 338.1 699.8 341.3 717.1 350.1C721.6 352.3 725.3 354 725.4 353.8C725.6 353.6 726.2 349 726.9 343.5C727.6 338 729.5 329.6 731.1 324.8C736.2 309.3 741.5 300.4 751.9 289.7C758.8 282.6 762.9 281 764.8 284.7ZM267.5 287.6C259.3 291.6 254 292 250.9 288.9C248 286 249.7 284.4 254.1 285.9C258.1 287.3 262.3 287.2 268 285.6C275.1 283.5 275 283.9 267.5 287.6ZM503.5 296.4C524.6 299.2 536.4 302.5 548.4 308.8C555.2 312.4 562.8 318.5 561.8 319.6C561.4 319.9 558.6 319.7 555.4 319.1C535.3 315.3 503.5 320.3 482.7 330.3C474.7 334.2 473.8 334.5 472.5 333C471.7 332.1 471 330.6 471 329.6C471 326.6 468.7 328.4 467.3 332.6C465.2 338.5 462.2 352 462.9 352C463.3 352 464.3 350.8 465.2 349.2C466.1 347.7 468 345.4 469.5 344L472.3 341.5L471.6 345C470 354.1 469.8 371.6 471.4 378.1C473 385.1 477.7 396.7 478.5 395.8C478.8 395.5 478.4 392.1 477.5 388.1C476 380.9 475.5 373 476.6 373C476.9 373 478.6 374.1 480.3 375.4C482.1 376.7 484.4 378.2 485.5 378.8C487.4 379.8 487.5 379.5 487.2 374.5C486.7 367.6 488 365.5 493.5 363.7C495.9 362.8 499.4 361 501.2 359.6C507 355.2 509.3 355.3 513.9 359.9C520.5 366.5 530.3 366.7 534.5 360.4L536.6 357.3L542 359.1C545 360.1 547.6 361 547.8 361C547.9 361 548 361.4 548 362C548 363.7 542.6 368.2 537.5 370.6C531.9 373.3 522.8 373.8 514.1 371.9C505.7 370.1 504.9 371.3 512.5 374.5C519 377.3 520.4 377.5 532.1 377.5C541.6 377.6 545.2 377.9 546.5 379C548 380.3 548.6 380 551.9 376.5C553.9 374.3 556.3 371.4 557.2 370.1C558.8 367.8 558.9 367.8 565.5 369.1C573.3 370.6 573.6 371 574.6 382.2C575.8 396.2 571.5 413.5 563.1 428.2C560.8 432.3 555.1 440.5 550.5 446.6C545.9 452.6 542.5 457.6 543 457.8C543.5 458 546.2 457.7 549.1 457.2C555.5 456 557 456.5 557 459.6C557 463.3 553.2 472.5 550.7 474.7C548.7 476.5 543 479 540.8 479C540.4 479 535.8 475.1 530.7 470.3C512.1 452.8 508.8 450.9 492.8 447.6C490.3 447 490.2 446.8 491.2 443.3C492.4 438.7 491.7 429.2 489.9 425.9C488.6 423.6 488.5 423.8 487.9 429.3C487.3 434.7 485 439 482.8 439C482.3 439 480.4 437.9 478.5 436.5C473.5 432.6 469.5 432.4 463 435.4C455.7 438.8 449 438.8 441.8 435.5C435.3 432.4 432 432.4 427.1 435.2C418.9 439.9 414.3 434.1 417.9 423.4C419 420.1 419.7 417.3 419.4 417.1C418.4 416.1 412.9 422.7 411.4 426.7C409.5 431.7 409.9 440 412.3 444.7L413.8 447.6L408.7 448.8C400.8 450.7 394.4 455.2 378.3 470.1C370.2 477.8 363.2 484 362.8 484C361.2 484 351.6 471.9 349 466.5C343.4 454.8 344.2 453.2 352.4 460C357.8 464.5 359.5 464.9 361 462.1C362.9 458.5 362 456.2 356.4 449.3C334 421.9 328.2 409.9 327.3 388.8C326.6 375.3 328.2 368.6 332.3 367.7C336.3 366.7 342.9 368.7 348.5 372.6C352.6 375.3 354.3 376.1 354.9 375.2C355.5 374.2 356.6 374.3 360.1 375.6C366.8 378.2 380.9 378 388.4 375.2C395 372.8 398.6 370.3 393.5 371.7C391.9 372.1 386 372.5 380.5 372.5C370 372.4 366.2 371.3 361.3 366.7C357 362.8 358.6 360.7 367.7 358.1C370.5 357.3 371.3 357.5 373.9 360.1C379.7 365.6 388.5 365.4 393.5 359.7C396.1 356.7 396.8 356.4 399 357.2C400.4 357.7 402.4 358.9 403.5 359.9C404.6 360.9 407.6 362.4 410.1 363.4C418.8 366.5 421 371.1 417.1 377.6C416.1 379.3 414.9 381.7 414.5 383.1C413.9 385.1 414.4 384.8 417.2 381.6C421.2 376.9 426 368.4 426 365.9C426 360.2 430.5 367.4 433.1 377.3C433.8 379.9 434.7 382 435.1 382C435.4 382 436.3 377.8 437 372.7C438.3 362.7 437.2 351 434.4 344.1C433.1 341.1 433.2 340.5 434.5 339C435.8 337.5 435.9 336.5 434.9 332.6C433.8 328.1 432 326.3 432 329.7C432 331.9 429.1 335 427 335C426 335 421.5 333.2 416.9 331.1C406.8 326.3 394.2 322.6 383 320.9C372.9 319.5 353.4 320.2 346.5 322.4C343.8 323.2 341.4 323.8 341.2 323.6C341 323.4 342 321.4 343.3 319.3C351.9 305.7 372.5 297.6 405.1 295C422.6 293.7 490.3 294.6 503.5 296.4ZM265.3 298.1C264.3 299.8 261.8 303.2 259.6 305.8C257.5 308.4 254.6 312.2 253.3 314.3C252 316.5 250.6 318 250.4 317.7C250.1 317.5 250.9 314.7 252.1 311.5C253.5 307.6 256 303.9 259.4 300.3C265.3 294.3 268.2 293.2 265.3 298.1ZM318.3 321.6C313.8 329.3 310.3 337.8 307.9 347C306 354 305.6 358.1 305.6 370C305.6 387.3 306.2 389.9 316.5 421C326.6 451.6 328 458.9 328.7 483L329.2 502.5L318.5 508.7C311.5 512.8 308 514.4 308.5 513.2C313.4 501.3 314.3 497.1 314.7 485.5C315.3 471.2 313.4 460.7 306.3 438.1C298.8 414.3 296 404.1 294.4 394C290.8 372.7 295.6 350.2 307.5 332C312 325.1 320 315.6 320.7 316.3C320.9 316.6 319.8 318.9 318.3 321.6ZM587 326.5C593.7 335.2 599.8 346.9 603.7 358.5L607.4 369.5L607.5 387.5C607.5 408.2 606.5 413.4 597.8 436.9C591.2 454.9 588.8 465.5 588.7 476.5C588.7 486.9 590.2 495.2 593.6 502.9C595 505.9 595.9 508.5 595.7 508.6C595.5 508.8 592.9 507.1 589.9 504.9C586.9 502.6 582.2 499.4 579.4 497.8L574.2 494.9L573.6 486.7C572.7 476.1 574.4 457.9 577.1 448.3C578.2 444.1 582.1 432.4 585.6 422.4C589.1 412.3 592.7 400.1 593.6 395.3C597.3 375.5 592.4 345.6 581.9 324.8C580.3 321.6 579 318.7 579 318.4C579 317.2 582.8 321.1 587 326.5ZM554.7 331.1C563 332.5 566.2 335.2 566.4 340.5C566.5 344.3 566.3 344.5 562.3 345.9C558.4 347.3 557.5 347.2 550.3 345.2C537.1 341.5 532.1 340.8 521.4 341.2C515.7 341.4 511 341.3 511 340.9C511 339.9 526.2 333.2 531 332.1C540.9 329.8 546.1 329.6 554.7 331.1ZM617.6 343C623.2 352.5 629.5 368.6 632.1 379.8C636.7 400.5 635.6 418.9 628 446.5C622.4 466.8 621 474.5 621 485.9C621 502.7 625.1 513.3 641.1 537.5C661 567.9 664.5 576.1 663.8 591.2C662.9 608.5 652.1 631.6 638.3 645.8C632.6 651.5 630.9 652.1 633.3 647.3C635.4 643.3 640.5 624.4 643.6 609.4C645.8 598.6 646.1 594.7 645.7 585.5C645.4 579.2 644.5 572.4 643.6 569.5C642.6 566.7 634.3 549 624.9 530C605.3 490.1 604.9 488.7 607.4 472.2C608.3 466.9 611.2 454.2 614 444C620.6 419.6 622 411.9 622.7 397C623.5 378.8 619.4 355.5 612.8 341C611.7 338.5 610.1 334.9 609.4 333L607.9 329.5L610.5 332.5C612 334.1 615.1 338.9 617.6 343ZM286 344C276.9 370.7 276.7 391.1 285.2 424C286.8 430.3 289.9 442.3 292 450.6C297 469.9 298.7 484.2 297.2 492.8C295.7 501.3 292.2 508 281.1 523.5C270.3 538.6 265.1 548.4 260.4 562.6C255 579.3 254.3 592.3 258 608.5C259.7 615.6 259 629 257.1 629C255.6 629 245 609.1 242.6 601.8C239.5 592.7 239.2 582.2 241.6 573.9C243.9 565.8 251.3 552.4 263.3 534.3C275.7 515.7 279.4 508.2 281.6 497.9C284.4 484.9 282.9 472.8 274.7 442C270.2 425.4 269.2 420.1 268 408C266.2 389.5 270.1 367.2 277.9 350.5C281.5 342.7 288.8 331.4 289.6 332.2C289.7 332.4 288.1 337.7 286 344ZM377.5 335.5C385.5 338.1 397.4 343.9 396.6 344.7C396.4 345 391.7 344.4 386.3 343.5C375.3 341.6 364.9 341.9 352.6 344.6C348.5 345.5 344.1 346 342.8 345.7C340 345 337.7 340.7 338.5 337.9C339 336.3 343.8 334 349.5 332.6C354.5 331.4 369.7 332.9 377.5 335.5ZM434.9 461C433.7 463.8 431.3 467.3 429.5 468.8C427.7 470.3 425.5 472.8 424.4 474.4C420.8 480.1 421.9 474.8 426 467.2C433.3 453.7 440.1 448.9 434.9 461ZM473.9 463.1C479.5 473.6 479.9 476.9 474.8 471C469.6 465 464.9 453 467.8 453C468.2 453 470.9 457.5 473.9 463.1ZM443.4 459.3C444.2 462.5 444 463.5 441.2 467.7C439.4 470.3 436.8 474.4 435.3 476.7C433.8 479.1 432.2 481 431.8 481C430.9 481 433.2 473.3 437.2 463.3C439 458.7 441 455.2 441.5 455.3C442.1 455.5 442.9 457.3 443.4 459.3ZM467.4 466.4C470.5 472.4 473 478.1 473 479.2C473 481.5 460.3 466.1 459.5 462.7C458.9 460.6 460.6 454.2 461.4 455.1C461.6 455.3 464.3 460.4 467.4 466.4ZM493.1 462.7C495.1 464.8 497.6 467.9 498.8 469.5C501.6 473.7 508.3 490.1 507.5 490.9C506.5 491.8 500.8 484.6 495.3 475.6C488.1 463.8 484 456.6 484 455.7C484 454.5 489 458.3 493.1 462.7ZM428 457.5C428 458.3 421.7 468.6 418.2 473.5C416.2 476.2 413.1 481.2 411.3 484.5C408.7 489.4 408 490 408 487.9C408 484.8 411.4 474.1 414.2 468.5C417 462.9 422.9 457 425.7 457C427 457 428 457.2 428 457.5ZM482 459.2C486.2 463.8 497 487.3 495.6 488.8C494.9 489.5 495.8 490.7 486.1 476.4C477.8 464.1 475 457 478.3 457C479.2 457 480.9 458 482 459.2ZM500.9 461.1C509 466.5 515.1 473.7 519.8 483.5C524 492.1 527.5 501.8 526.7 502.6C525.9 503.4 519.6 495.2 514 486C508.1 476.5 505 472.3 497.2 463.2C490.8 455.9 492.1 455.2 500.9 461.1ZM417 459.1C417 459.7 415 462.9 412.7 466.3C410.3 469.7 406.2 476.3 403.6 481C401 485.7 398 490.6 397 492C395.1 494.5 395 494.5 395 492.3C395 489.3 399.7 476.4 402.7 471.3C405.1 467.1 414.3 458 416.1 458C416.6 458 417 458.5 417 459.1ZM407.4 461.1C407 461.8 404.6 465 402.1 468.4C399.5 471.8 395.5 479.1 393.1 484.5C388 496.2 382.7 506.2 380.5 508C378.5 509.7 378.5 509.2 382.1 497.6C387.8 479.1 393.1 469.8 401.7 463.5C406.6 460 408.7 459.1 407.4 461.1ZM527.1 478.2L540.6 491.8L554.1 498.3C561.5 501.8 570.1 505.8 573.2 507.1C576.4 508.4 579 509.8 579 510.2C579.1 513.1 550.3 512.3 542 509.1C536.8 507.1 530.3 502.4 531.4 501.3C531.6 501 534.7 501.7 538.2 502.8C551.5 507 552 506.5 541.4 499.6C530.2 492.3 525.2 487.3 517.1 475.6C513.1 469.8 509.2 464.6 508.4 463.9C507.6 463.3 507 462.3 507 461.8C507 459.4 514.7 465.7 527.1 478.2ZM391.2 471.2C390.1 473 387 478.2 384.3 482.6C377.7 493.5 376.6 494.7 368.6 501C364.8 504 362.2 506.6 362.7 506.7C363.6 507 368.3 505.6 373.4 503.5C374.8 502.9 375.2 503 374.8 504.1C374.1 506.1 368.3 509.8 363.6 511.2C358.9 512.6 344.9 512.9 340.5 511.7C337.6 510.9 337.6 510.8 339.5 509.3C340.6 508.5 346 505.6 351.5 502.8C364.6 496.2 370 492.1 376.8 483.2C382 476.4 392 466.7 392.9 467.5C393.1 467.7 392.3 469.4 391.2 471.2ZM457 479.5C461.6 479.8 462 480 462 481.6C462 483.5 456.1 486 451.5 486C446.9 486 442 483.5 442 481.1C442 478.3 443.1 477.9 449 478.6C452 479 455.6 479.4 457 479.5ZM446.5 497C451.5 497.5 457.7 497.5 463.2 496.8C475.4 495.4 480 497 480 502.6C480 508.9 455.8 514.9 443.1 511.6C436.6 509.9 428.8 505.3 427 502C424.9 498.1 429 494.7 435 495.6C436.9 495.8 442.1 496.5 446.5 497ZM592 522.4C594.5 524 598 527 599.8 528.9C603.6 533 607.5 540 606 540C605.5 540 605 539.6 605 539.2C605 537.7 590.4 522.6 587.6 521.1C586.2 520.3 585 519.3 585 518.8C585 517.8 585.7 518.1 592 522.4ZM331 520.9C331 521.4 329.5 522.4 327.8 523.1C326 523.8 319.1 528 312.5 532.4C305.9 536.7 301.4 539.2 302.5 537.9C307.3 531.9 316.1 525.5 324 522.3C330.1 519.8 331 519.6 331 520.9ZM580.1 526.1C589.6 530.9 603.6 545.5 611.5 558.8C616.3 567 621.5 581.8 622.4 590L623 595.5L620.7 588.5C615.9 574.3 606.8 559.6 598.7 553.1C597.2 551.9 597.1 552.1 598.6 557.1C599.5 560.1 602.7 568.3 605.7 575.5C608.7 582.6 611.9 590.6 612.6 593.2C614.5 599.5 615.6 612.1 615 619.5C614.4 626.2 613.9 625.4 611.9 613.5C610.3 603.8 605.9 591.1 601.9 584.5C598.4 578.7 586.5 566.2 585.4 567.2C584.3 568.4 590.1 586.5 596.6 601.7C603.6 618.2 607 629.7 607 636.8C607 642.5 606.4 641.9 604.4 634.4C601 621.2 596.6 615.3 582.6 605.6C572 598.2 555.9 584.1 550.7 577.8C544.4 570 539 558.8 541.8 559.1C542.2 559.1 547 564.1 552.4 570.1C562.2 580.9 572.5 589.9 573.7 588.7C574 588.3 568.8 579.7 562.1 569.6C555.5 559.4 550 550.8 550 550.5C550 548 562.1 553.3 569.9 559.2L575.3 563.3L574.6 560.4C572.8 553.4 565.4 547.9 552 543.5C544.9 541.1 547.2 540.4 556.9 542C568.8 543.8 573.5 546.5 585.9 558.4C591.9 564.2 597.1 569 597.4 569C597.9 569 593.6 558.1 591 553C588.1 547.3 582.1 541.1 573.7 534.8C569.4 531.6 566.1 529 566.5 529C567.6 529 575.4 533.2 583.8 538.3C588.3 541 592.3 543 592.6 542.8C593.6 541.7 581 529.3 576.5 526.9C568.5 522.7 571.8 521.9 580.1 526.1ZM474.3 532.2C498.4 542.2 527.5 562.5 538.7 577.2C542.7 582.4 543.6 582.8 542 578.5C541.4 577 541.2 575.5 541.4 575.3C542.3 574.4 559.9 592.5 560.9 595.3C561.5 596.9 562 600.9 561.9 604.3V610.5L560.4 605.6C558.8 600.7 554.9 593.7 553 592.5C551.6 591.7 551.7 619.8 553.1 631C553.7 636.5 555.4 642.5 557.6 648C563.3 661.6 564.3 666 563.1 672.7C562.5 675.9 559.9 682.8 557.3 688L552.6 697.5L551.9 684.6C551.5 677.4 550.9 670 550.5 668.1C549.7 663.6 546.9 654.7 546.4 655.2C546.2 655.4 544.7 664.1 543 674.6C541.3 685 539.7 694.2 539.4 695C539.1 695.9 537.6 693.3 535.6 688.5C533.9 684.1 530.5 676.9 528.1 672.5C523.2 663.3 510.1 642.2 509 641.5C508.5 641.2 508.4 642.9 508.7 645.2C509.2 649.5 510.5 653.6 517.4 672.3C519.4 677.8 520.7 682 520.2 681.8C518.6 681.2 509 670 505.6 664.8C498.4 653.8 498.4 647.3 506 629.6C509.9 620.4 510.2 619.3 509.9 612.1C509.5 604 507.9 600.1 501 589.2C499.2 586.3 498 583.7 498.3 583.4C499.2 582.4 508.9 592 513.5 598.5C515.8 601.8 518.9 606.7 520.3 609.5C524.5 617.6 524.3 617.4 527.9 615.6C531.6 613.6 531.4 613.3 533.4 624C534.9 632 539.9 646 541.2 646C543.2 646 541.9 630.8 539.1 619.9C537.4 613.6 535.2 603.2 534 596.7C532.9 590.2 531.2 583 530.3 580.7C526.8 571.9 521 564.7 514.6 561.3L511.7 559.8L513.9 563.1C520.2 572.7 525.9 586.5 528.4 598.2C529.3 602.2 527.9 601.6 525.2 597C519.6 587.1 504.1 574.1 483.2 561.6C481.6 560.6 485.3 570.4 491.8 584C496.1 593.1 500.5 605 499.6 605C499.4 605 497.6 602.2 495.5 598.9C493.4 595.5 488.3 588.7 484.1 583.8C469.6 566.7 467.9 564.5 464.2 558.6L460.5 552.6L459.8 558.9C459 565.9 456.2 572.5 452.5 576C450.2 578.2 449.8 578.2 448.4 576.8C446.4 574.9 445.1 569 445 562.4C445 557.2 442.5 547 441.2 547C440.8 547 439 549.4 437.1 552.3C435.2 555.1 427.5 563.6 420 571C407.3 583.5 402.5 589.4 400.6 594.5C400.2 595.6 405 591.5 411.2 585.4C417.4 579.3 424.8 572.6 427.5 570.5C430.3 568.3 434.2 564.6 436.3 562.3C439.6 558.7 443 556.7 443 558.5C443 561.2 436.9 573.8 432.5 579.9C425.8 589.5 425.3 590.7 423.5 603C421.8 614.5 421.5 615.5 418.3 619.7C415.3 623.8 414.3 623.8 413.5 620C413 617.6 412.5 617.2 411.5 618C410.2 619.1 409.5 621.5 405.8 637L403.5 646.5L402.9 633C402.5 625.6 402.2 618.9 402.1 618.2C401.9 615.6 399.9 617.2 397.4 622.1C393.1 630.6 392 638.9 392.2 658.4C392.4 670.1 392.1 676.3 391.4 677C390.6 677.8 390.1 676.4 389.7 671.8C389 664.9 387.1 658.2 385.5 657.8C383.7 657.3 380.6 665.4 380.2 671.8C379.6 681.2 382 688.7 391.1 705.1C395.4 713 399 720.1 399 720.8C399 722.2 391.3 713.7 381 700.9C368.2 685.1 366.9 677.8 373.4 658.8C375.4 652.9 377.9 642.6 379.1 635.9C380.2 629.2 382.5 619.6 384.1 614.6C386.4 607.7 387.3 602.9 387.7 594.7C388.4 582.6 387.7 581.6 383.3 588.2C379.4 594.1 378.2 597.1 376.4 605.4C375.3 610.7 373.8 614.2 370.3 619.2C367.8 623 365.3 626 364.9 626C364.5 626 365.5 622.1 367.1 617.3C369.6 609.8 372 596.5 372 589.6C372 587.8 371.9 587.8 370.1 589.4C366.9 592.3 362.9 600.8 361.4 608.2C360.6 612.2 359.7 615.7 359.4 615.9C359.2 616.1 359 611.5 359 605.7C359 599.7 358.6 595 358.1 595C357.6 595 356.3 596.2 355.2 597.7C348.7 607 349.5 618.5 358.4 645.7C362 656.7 365 666.5 365 667.7C365 668.8 364.1 672.3 363 675.6C358.2 689.3 358.7 699.8 364.5 713.4C366.4 717.8 367.8 721.5 367.6 721.7C367 722.3 357.2 710.4 355.4 706.8C352.5 701.1 351.8 697.7 351 682.5C350.3 669.3 349.8 666.1 346.6 656.1C341.3 639.6 339.7 628.9 340.2 614.1L340.6 601.8L338.3 608.6C336.1 614.9 333 635.8 333 643.7C333 645.5 334.8 652.5 337.1 659.2C341.3 671.8 343.1 683.7 341.5 689.6L340.8 692.5L338.5 689.6L336.2 686.7L335.6 690.1C335.3 692 334.9 696.4 334.7 700L334.5 706.5L331.3 700C325.8 688.7 325.3 680.3 329.5 669.5C330.2 667.9 330.1 667.7 328.9 668.7C326.6 670.9 325.3 670.1 323.1 665.1C320.2 658.2 320.5 652.9 324.5 640C326.4 633.9 328 628.6 328 628.4C328 628.2 326.8 628.7 325.3 629.7L322.7 631.4L323.2 624C323.6 619.9 324.8 614.1 325.9 611.1C327.1 608.2 327.9 605.5 327.6 605.3C326.8 604.5 321.1 609.3 318.6 612.9C312.4 621.9 309.5 638.4 310.4 660.2C311.1 676.2 310.5 679.3 307.6 674.8C304.7 670.2 303 660.5 303 647.8C303 634.2 304.2 628.5 309.1 618.8C310.9 615.2 312.4 610.1 313.1 605.3C314.4 596 318.5 584.4 324.1 574.1C328.8 565.7 328.7 565.7 316.8 576.3C304.5 587.2 300.6 595.1 299.1 612.6C298.4 621.1 298 622.3 293.5 629.9C286.3 642.1 285.9 642 289 627.7C290.1 622.7 291.7 613.9 292.5 608.2C294.9 592.1 295.7 589.2 301.2 578.3C306.3 568.3 307 564 302.7 569C301.5 570.4 299.4 572.9 298 574.5C296.6 576.2 293.3 579.3 290.6 581.5C286.1 585.2 285.8 585.3 286.5 583C288.8 575.1 294.7 564.8 301.7 556.6C305.8 551.7 305.8 550.8 301.9 552.2C297.5 553.7 287.3 563.5 284.5 568.9C282.5 572.8 282.1 573.1 282.1 571C282 566.3 286.5 558.7 292.7 553C302.1 544.4 322.8 532.7 331.5 531.1C334.2 530.6 336.7 530.3 336.9 530.5C337.1 530.8 334 534.4 330 538.7C326 543 321 549.1 318.8 552.4C314.5 558.6 306.5 574.8 307.3 575.6C308.1 576.4 318.2 567.5 327.6 557.8C337 548 344.7 543 350.3 543H353.2L350.8 546.2C346.1 552.4 338 571.3 339.4 572.7C339.7 573 344.3 569 349.7 563.8C360.8 553.1 363.9 550.8 369.3 549.1C374.3 547.4 376.4 548.3 372 550.2C365.8 553 360.1 557.9 357 563.2C351.9 572.2 353.1 573 361.1 565.6C368.3 559 370.8 557.5 369.5 560.7C369.1 561.7 368.5 564.5 368.3 567L367.8 571.5L371.1 568.4C376.2 563.7 379.9 561.4 391.1 555.9C396.7 553.1 407.1 547.5 414.1 543.5C438.7 529.3 442.8 527.8 456 528.3C464.2 528.6 466.7 529.1 474.3 532.2ZM411.9 539.4C411.7 539.6 408.4 541.9 404.7 544.5C398.4 548.8 381 555.9 381 554.2C381 553.8 384.3 551.8 388.3 549.7C392.2 547.7 398.2 544.4 401.5 542.5C404.8 540.6 408.6 539 409.9 539C411.2 539 412.1 539.2 411.9 539.4ZM461.5 591.7C462.3 598.3 467 612.1 471.1 620C474.6 626.9 474.8 625.3 472 606.9C470.9 599.6 470.3 593.4 470.6 593.1C472.2 591.5 481.8 607.9 484.4 617C485.3 620 486.5 628.1 487.1 635C487.9 644.5 489 649.9 491.5 657.5C494.5 666.5 495.4 670.5 495.1 673.5C495 674.8 490.1 664.6 486.9 656.2C485.6 652.8 484.2 650 483.8 650C482.6 650 482.9 657.9 484.4 665C485.2 668.6 487.5 675.8 489.5 681C494.1 693 495.1 698.2 493.9 704.5C492.6 711.8 486.1 724.5 475.8 740.5C466.4 754.9 463.5 758.9 464.4 756C464.6 755.2 465.8 751.3 467.1 747.5C468.3 743.6 471.6 735.1 474.5 728.5C484.4 706.1 484.8 701.5 478.9 682C476.1 672.7 475.7 670 475.6 659C475.5 652.1 475.9 644.1 476.3 641.1C477.1 636.1 477 635.8 475.4 637.1C472.7 639.3 469.5 645 467.5 651C465 658.4 465.1 670.8 467.9 683.4C470.4 695.2 470.6 706.5 468.4 716.3C466 726.8 465.1 727.7 465 719.4C465 711.4 462.9 702.4 457.5 687C453.2 674.5 452 666.2 453.1 656.1C453.6 652 453.8 648.5 453.6 648.3C452.9 647.6 447.2 657.6 446 661.5C445.4 663.7 444.6 666.1 444.4 666.9C443.8 668.7 438.8 664 436.6 659.6L435 656.5V660.5C435 664.5 437.6 672.4 446.3 695.5C451.2 708.6 454 720.2 454 727.7V732.5L448.1 721.5C445 715.4 439.2 705.5 435.3 699.5C431.4 693.4 427.4 686.7 426.2 684.5C422.9 677.9 420 667.2 419.9 661.1C419.8 656 419.7 655.7 418.8 658.5C418.2 660.1 417.7 666.7 417.7 673C417.6 686.9 420 696.8 428.7 717.2C435 732.1 439.3 744 438.7 744.6C438.2 745.1 437.1 743.5 428.7 730.1C421 717.7 417.4 710.5 413.4 699.5L410.1 690.5L410 698.7C410 709.4 412.1 720.1 416.4 730.7C418.4 735.5 419.8 739.5 419.6 739.7C419 740.3 413.2 730.7 410.2 724C405.4 713.5 403.6 704.8 403.6 692.5C403.6 678.7 405.3 671 413.6 647.5C417.1 637.6 421.3 624.4 422.9 618.1C426.6 604 429.8 597.3 435.2 592.4C440 588.1 440.6 588.8 439.1 596C437.5 603.2 437.7 614.6 439.5 621.4C441.9 630.4 442.5 630.6 442.2 622.2C441.6 609.3 446 589.2 449.2 590.2C449.9 590.5 451.5 593.3 452.8 596.6C454 599.8 455.7 603.8 456.5 605.5C458 608.4 458 608.3 457.4 602.2C456.8 596.1 458.4 586 460 586C460.4 586 461.1 588.6 461.5 591.7ZM487.9 601.3C495.5 611.7 497.6 617.8 496.5 626.6C495.7 633.3 494.5 632.8 493.6 625.5C492.9 619.4 490.5 612.8 485.4 602.7C483.5 599 482 595.7 482 595.4C482 594.2 484.3 596.5 487.9 601.3ZM581.5 626.7C583.3 634.8 585.7 645.5 586.8 650.5C589.1 660.7 590.5 673.3 589.1 671C588.7 670.2 587.9 667.8 587.6 665.6C587.2 663.5 585.2 657.2 583.2 651.6C578.6 639 577.9 641.6 581 659.8C583.4 673.7 583.2 680.7 580.1 689.6C578.2 694.9 571.2 706.6 570.4 705.7C570.1 705.5 570.9 701.9 572 697.9C575.1 686.8 575.6 675.4 573.5 659.5C571.4 643.3 571.8 632.3 575 619.7C576.3 614.9 577.5 611.2 577.8 611.4C578 611.7 579.7 618.6 581.5 626.7ZM513 703.7C516.2 715.8 515.4 728.6 510.9 738.4L509.1 742.5L509.7 734.9C510.5 724.2 509 724 503.9 734.2C499.8 742.3 495.1 749.4 494.3 748.7C494.1 748.5 496.4 742.7 499.3 735.9C507.8 716.3 508.5 713.9 508.5 701.8C508.5 692.4 508.7 691.4 509.8 693.6C510.5 694.9 512 699.5 513 703.7Z" fill="#253932"/>
<path d="M488.2 88.1C483.7 91.6 482.5 93 483.9 93C486.1 93 492.4 87.9 494.1 84.9C495.4 82.5 495.6 82.4 488.2 88.1Z" fill="#253932"/>
<path d="M302 100.5C302 100.8 303.9 103.1 306.2 105.6C311 110.8 310.6 111.8 303.2 112.7C296.7 113.4 297.4 115 304.3 115C310.2 115 322.9 112.5 324.3 111.1C324.8 110.6 322 109.2 317.3 107.6C313 106.2 307.8 103.8 305.7 102.5C303.7 101.1 302 100.2 302 100.5Z" fill="#253932"/>
<path d="M294.5 135.9C290.6 136.9 285 139.8 285 140.9C285 141.6 312.9 143.1 313.8 142.4C314 142.3 311.6 141.5 308.5 140.6C303.4 139.1 301.8 137 305.7 137C308.7 137 306.5 136.3 302 135.7C299.5 135.4 296.2 135.5 294.5 135.9Z" fill="#253932"/>
<path d="M307.8 157.7C310.7 158.1 312.5 160 309.9 160C309.4 160 309.1 160.4 309.4 160.9C309.7 161.4 312.1 162.1 314.6 162.5C317.2 162.8 319.9 163.4 320.8 163.8C321.8 164.1 322.1 163.9 321.6 163.2C321.1 162.4 321.9 162 324.2 162L327.5 161.9L324.9 160.5C322.1 159 311.1 156.9 307 157.2C305.1 157.3 305.3 157.4 307.8 157.7Z" fill="#253932"/>
<path d="M597 162.5C593.7 166 588.9 167.1 579 166.5L570.5 166L576.5 167.5C579.8 168.3 585.1 168.9 588.3 169C593.5 169 594.5 168.7 597.1 166.1C598.7 164.5 600 162.4 600 161.6C600 159.5 599.8 159.6 597 162.5Z" fill="#253932"/>
<path d="M533.5 183.9C534.2 185.1 538.3 187.4 542.5 189C547 190.7 545.1 189.1 538.9 186C535.5 184.3 533.1 183.4 533.5 183.9Z" fill="#253932"/>
<path d="M357 193.6C354.5 195.4 350.3 197.9 347.5 199L342.5 201.1L346.4 200.6C350.9 200 358.6 195.6 360.8 192.2C362.7 189.4 362.4 189.4 357 193.6Z" fill="#253932"/>
<path d="M368.9 194.4C366.4 196.1 362.4 199.2 359.9 201.3C356 204.7 355.9 205 358.5 203.9C364.6 201.3 375.2 192.8 373.9 191.6C373.7 191.4 371.4 192.6 368.9 194.4Z" fill="#253932"/>
<path d="M293 198C292.2 199.8 289.3 204.1 286.5 207.4C280.6 214.3 278.5 218 277.6 223L276.9 226.5L279.5 223.5C285.5 216.4 295.6 198.2 294.7 195.7C294.5 195.1 293.8 196.2 293 198Z" fill="#253932"/>
<path d="M530.5 206C531.3 208.7 534.9 215 535.6 215C536.1 215 531.1 204.9 530.3 204C530 203.7 530.1 204.6 530.5 206Z" fill="#253932"/>
<path d="M461 213.8C461 218.8 463.3 223.2 468 227.3C470.4 229.3 472.7 231 473.2 231C473.6 231 472.4 228.8 470.4 226C468.5 223.3 465.6 218.7 464 215.8C461.1 210.5 461 210.5 461 213.8Z" fill="#253932"/>
<path d="M247.6 258.7C248 260.8 248.7 263.5 249.1 264.8C250 267.2 258.8 277 260.1 277C260.5 277 259.7 274.9 258.3 272.2C255.4 266.7 248 255 247.3 255C247.1 255 247.2 256.7 247.6 258.7Z" fill="#253932"/>
<path d="M137.3 657.4C129.8 659.8 124.7 663.6 115.2 673.9C104.4 685.5 104.4 682.6 115.7 699.5C126.8 716.2 125.6 715.1 128.7 711C137 699.9 150.9 689.8 159.8 688.4C162.1 688 164 687.6 164 687.3C164 687.1 163 685 161.8 682.7C160.7 680.4 157.8 673.5 155.5 667.5L151.4 656.5L146.4 656.3C143.7 656.2 139.6 656.7 137.3 657.4Z" fill="#253932"/>
<path d="M752.5 657.2C752.3 657.9 751.4 661 750.6 664.1C749.7 667.2 747.7 673.1 746 677.1C744.4 681.2 743 684.8 743 685.1C743 685.5 744.7 686 746.8 686.4C754.3 687.6 764.8 693.8 773.1 702.1L781.1 709.9L786.4 701.7C789.3 697.2 792.9 691.4 794.3 688.9L797 684.3L786.5 673.9C774.6 662.2 770.3 659.3 762.2 657.4C755.1 655.7 753 655.7 752.5 657.2Z" fill="#253932"/>
</svg>
